<?xml version="1.0" encoding="UTF-8"?>
<svg xmlns="http://www.w3.org/2000/svg" viewBox="770 170 245 772" role="img" aria-label="Nautiwax wave mark">
<path style="stroke:none;fill-rule:evenodd;" fill="#A100C4" d="M 955.582031 416.71875 C 952.203125 403.570312 946.976562 390.597656 939.90625 377.78125 C 922.710938 348.453125 896.070312 319.453125 860.007812 290.804688 C 894.394531 315.074219 921.691406 339.683594 941.917969 364.632812 C 950.019531 374.746094 956.753906 384.6875 962.144531 394.46875 C 998.898438 460.210938 986.257812 528.304688 924.21875 598.765625 C 919.515625 604.503906 914.105469 610.226562 908.046875 615.960938 C 907.714844 616.636719 907.367188 617.144531 907.035156 617.476562 C 898.601562 625.566406 891.1875 633.832031 884.785156 642.257812 C 876.015625 652.035156 868.257812 661.804688 861.523438 671.585938 C 848.03125 693.160156 839.101562 714.570312 834.722656 735.808594 C 834.042969 740.1875 833.195312 744.578125 832.191406 748.957031 C 824.769531 807.960938 855.453125 864.929688 924.21875 919.878906 C 927.261719 922.578125 929.628906 924.773438 931.308594 926.453125 C 928.941406 924.429688 926.25 922.246094 923.21875 919.878906 C 834.214844 856.160156 797.128906 788.90625 811.964844 718.109375 C 813.65625 710.695312 815.851562 703.273438 818.539062 695.859375 C 820.21875 691.8125 821.90625 687.433594 823.597656 682.710938 C 828.308594 673.609375 833.550781 664.507812 839.273438 655.402344 C 851.066406 636.867188 866.417969 618.488281 885.289062 600.285156 C 890.347656 594.894531 895.070312 589.492188 899.449219 584.101562 C 905.851562 577.355469 911.414062 570.621094 916.136719 563.875 C 954.914062 513.640625 968.050781 464.589844 955.582031 416.71875 " />
<path style="stroke:none;fill-rule:evenodd;" fill="#875EFF" d="M 833.710938 751.988281 C 834.042969 747.277344 834.722656 742.886719 835.722656 738.84375 C 852.25 767.839844 878.878906 796.664062 915.632812 825.316406 C 880.566406 801.042969 853.261719 776.597656 833.710938 751.988281 M 939.90625 377.78125 C 946.976562 390.597656 952.203125 403.570312 955.582031 416.71875 C 944.113281 447.738281 922.378906 479.425781 890.347656 511.789062 C 888.324219 514.144531 886.292969 516.167969 884.277344 517.855469 C 882.925781 519.546875 881.40625 521.0625 879.726562 522.40625 C 835.894531 569.941406 813.988281 616.636719 813.988281 662.484375 C 814.320312 666.195312 814.492188 670.242188 814.492188 674.621094 C 813.140625 677.988281 811.632812 681.871094 809.941406 686.25 C 808.265625 692.652344 806.910156 699.066406 805.898438 705.46875 C 803.207031 700.410156 801.011719 695.179688 799.324219 689.789062 C 796.621094 682.710938 794.773438 675.632812 793.761719 668.550781 C 786.347656 625.398438 798.988281 581.402344 831.6875 536.566406 C 841.800781 522.40625 853.777344 508.421875 867.59375 494.59375 C 870.28125 491.5625 873.316406 488.527344 876.695312 485.492188 C 911.082031 449.082031 932.15625 413.179688 939.90625 377.78125 M 964.179688 383.851562 C 958.445312 374.414062 951.363281 364.804688 942.9375 355.023438 C 945.640625 296.367188 911.929688 240.0625 841.800781 186.125 C 933.160156 249.507812 973.949219 315.410156 964.179688 383.851562 " />
</svg>
